<svg width="850" height="200" viewBox="0 0 850 200" fill="none" xmlns="http://www.w3.org/2000/svg">
<rect width="850" height="200" fill="#F5F5F5"/>
<rect width="850" height="200" fill="white"/>
<rect width="850" height="200" fill="#393E46"/>
<path d="M194.28 109.427V147H170.11V36.624H211.858C226.165 36.624 237.029 39.5537 244.451 45.4131C251.873 51.2236 255.584 59.7441 255.584 70.9746C255.584 82.6934 251.482 92.0439 243.279 99.0264C235.076 105.96 224.383 109.427 211.199 109.427H194.28ZM194.134 53.9824V91.9219H200.579C212.688 91.9219 220.696 90.2617 224.603 86.9414C228.558 83.5723 230.535 78.4209 230.535 71.4873C230.535 65.7744 228.631 61.4287 224.822 58.4502C221.062 55.4717 213.592 53.9824 202.41 53.9824H194.134ZM332.887 85.1104H332.154C329.127 84.3291 325.074 83.9385 319.996 83.9385C312.037 83.9385 304.713 85.208 298.023 87.7471V147H275.538V62.1855H298.023V77.5664C304.908 71.3652 310.572 67.2148 315.016 65.1152C319.459 62.9668 323.829 61.8926 328.126 61.8926C329.249 61.8926 330.836 61.9414 332.887 62.0391V85.1104ZM387.558 149.637C373.788 149.637 363.095 145.682 355.478 137.771C347.86 129.812 344.052 118.777 344.052 104.666C344.052 90.5059 347.885 79.4463 355.551 71.4873C363.266 63.5283 373.935 59.5488 387.558 59.5488C401.278 59.5488 411.947 63.5283 419.564 71.4873C427.23 79.4463 431.063 90.5059 431.063 104.666C431.063 118.777 427.23 129.812 419.564 137.771C411.947 145.682 401.278 149.637 387.558 149.637ZM387.558 75.2227C374.228 75.2227 367.562 85.1104 367.562 104.886C367.562 124.271 374.325 133.963 387.851 133.963C400.985 133.963 407.553 124.271 407.553 104.886C407.553 85.1104 400.888 75.2227 387.558 75.2227ZM533.269 147H510.783V76.7607H476.945V147H454.387V77.0537H442.814V62.1855H454.387V59.2559C454.387 40.3594 464.763 30.9111 485.515 30.9111C492.351 30.9111 498.21 31.3262 503.093 32.1562V47.9033H502.507C498.698 46.8291 495.109 46.292 491.74 46.292C485.783 46.292 481.682 47.3418 479.436 49.4414C477.238 51.4922 476.14 55.2275 476.14 60.6475V62.1855H533.269V147ZM534.074 51.5654H511.003V31.7168H534.074V51.5654ZM583.545 147H561.06V31.7168H583.545V147ZM687.801 108.108H627.669C628.646 125.101 638.289 133.597 656.6 133.597C666.17 133.597 675.789 130.13 685.457 123.196H686.263V142.679C674.788 147.073 663.997 149.271 653.89 149.271C637.972 149.271 625.838 145.486 617.488 137.918C609.139 130.35 604.964 119.437 604.964 105.179C604.964 91.0186 608.919 79.8857 616.829 71.7803C624.739 63.626 635.652 59.5488 649.568 59.5488C675.057 59.5488 687.801 73.0986 687.801 100.198V108.108ZM665.315 95.3643C665.12 80.7646 659.188 73.4648 647.518 73.4648C635.115 73.4648 628.499 80.7646 627.669 95.3643H665.315Z" fill="white"/>
</svg>
